<svg width="50" height="32" viewBox="0 0 50 32" fill="none" xmlns="http://www.w3.org/2000/svg">
<path d="M43.6716 1.16929C43.676 1.19282 43.5177 1.24878 43.2151 1.33463L42.9618 1.40395C42.8687 1.43066 42.768 1.46436 42.6585 1.49807L42.3052 1.60618L42.2089 1.63543L42.1114 1.67041C42.0481 1.6933 41.9772 1.71746 41.9069 1.7429C41.767 1.7925 41.6182 1.84274 41.4637 1.89998L40.9837 2.09394C40.8146 2.15753 40.6449 2.23957 40.4676 2.32097L40.1954 2.44497C40.1023 2.48504 40.013 2.53782 39.9187 2.58424C39.0692 3.01181 38.262 3.51945 37.5081 4.10031C36.5968 4.80257 35.7665 5.60479 35.0324 6.49206C34.1961 7.51208 33.4958 8.63719 32.9492 9.83898C32.9124 9.91784 32.8764 9.99669 32.8396 10.0762C32.8029 10.1557 32.7731 10.239 32.7402 10.3204C32.6769 10.4838 32.6041 10.646 32.5439 10.8139L32.366 11.3226C32.3343 11.4072 32.309 11.4937 32.2837 11.5808L32.2058 11.8415C31.9949 12.5539 31.8397 13.2817 31.7417 14.0183C31.7296 14.1118 31.7107 14.2047 31.7037 14.2994C31.6967 14.3942 31.6853 14.4902 31.6765 14.5837C31.6587 14.7745 31.6353 14.9652 31.6309 15.156C31.6264 15.3468 31.6106 15.5408 31.6055 15.7347V16.3185C31.6346 17.9058 31.9154 19.4783 32.4376 20.9767L32.6383 21.5243C32.7098 21.7042 32.7883 21.8804 32.8624 22.0578C32.9365 22.2352 33.0214 22.407 33.103 22.5793C33.1448 22.6651 33.186 22.7504 33.2297 22.8337C33.2734 22.917 33.319 23.0009 33.3626 23.0842C33.7102 23.7411 34.1084 24.3696 34.5537 24.964L34.7164 25.1815C34.7709 25.254 34.824 25.3265 34.8829 25.3946L35.2255 25.8079C35.3401 25.944 35.4629 26.0712 35.5807 26.2022L35.758 26.393L35.9429 26.5774C36.8719 27.5131 37.9183 28.3233 39.0556 28.9876C40.0509 29.5633 41.1071 30.0255 42.2045 30.3657C43.1128 30.647 44.0457 30.8409 44.9905 30.945C45.095 30.9565 45.1976 30.9743 45.2989 30.9793L45.5965 31.001C45.7915 31.015 45.9764 31.0328 46.1594 31.0334L46.6767 31.0474C46.8413 31.0474 46.9977 31.0417 47.1465 31.0404L47.3631 31.0366H47.4663L47.567 31.0302L47.9355 31.008C48.0501 31.001 48.1565 30.9978 48.2521 30.9908L48.5142 30.9666C48.8308 30.9412 48.9954 30.9386 48.9999 30.9622C49.0043 30.9857 48.8441 31.0334 48.5345 31.104L48.2742 31.1606C48.178 31.179 48.0716 31.193 47.9576 31.2108L47.586 31.2649L47.4853 31.2795L47.3802 31.289L47.1611 31.3081C47.0104 31.3202 46.8515 31.3361 46.6837 31.3463L46.1556 31.3615C45.9713 31.3704 45.7757 31.3615 45.5794 31.3577L45.2729 31.3495C45.1691 31.3495 45.064 31.3355 44.9563 31.3285C43.98 31.2623 43.013 31.0963 42.0702 30.8331C39.5935 30.1472 37.3323 28.8373 35.5009 27.0276L35.3059 26.8369C35.2426 26.7733 35.1793 26.704 35.1159 26.6372C34.9893 26.5017 34.8627 26.3707 34.7411 26.2302L34.3789 25.8022C34.3156 25.7316 34.2605 25.6566 34.2035 25.5815L34.0307 25.3558C33.561 24.7389 33.1408 24.0857 32.7738 23.4022C32.7276 23.3144 32.6756 23.2305 32.6332 23.1402L32.5021 22.8725C32.4154 22.6931 32.3229 22.5151 32.2489 22.3287C32.1748 22.1424 32.088 21.9586 32.012 21.771L31.8006 21.1987C31.2494 19.6328 30.9553 17.9874 30.9299 16.3268C30.9299 16.1226 30.9299 15.9191 30.9299 15.7163C30.9299 15.5134 30.9489 15.3118 30.9584 15.1109C30.9679 14.9099 30.9895 14.7109 31.0091 14.5118L31.0395 14.2148C31.0471 14.1156 31.0673 14.0183 31.0806 13.9204C31.1876 13.1513 31.3553 12.3919 31.5821 11.6495C31.61 11.5585 31.6385 11.4682 31.6663 11.3779C31.6942 11.2876 31.7208 11.1973 31.7543 11.1096L31.9443 10.5824C32.0076 10.4081 32.0855 10.2396 32.1545 10.0692C32.1906 9.98461 32.2261 9.90067 32.2615 9.81482L32.3787 9.56871C33.4692 7.23242 35.1359 5.21463 37.2207 3.70667C38.0129 3.13074 38.8615 2.63746 39.7534 2.23448C39.8522 2.1906 39.9434 2.141 40.0434 2.10729L40.3271 1.99282C40.5132 1.91842 40.6905 1.84338 40.8666 1.78805L41.3668 1.61762C41.5276 1.56866 41.6834 1.52796 41.8277 1.48662L42.0399 1.42811L42.1418 1.40013L42.2412 1.37851L42.6085 1.29965C42.7218 1.27613 42.8263 1.2526 42.9251 1.23606L43.1891 1.19854C43.5038 1.15657 43.6716 1.1464 43.6716 1.16929Z" fill="white" stroke="white" stroke-width="0.5"/>
<path d="M33.0919 8.34065C33.0919 8.35337 32.99 8.36163 32.8285 8.27705C32.667 8.19247 32.4657 8.00678 32.2719 7.72697C31.88 7.16608 31.5051 6.24906 31.1449 5.07576C30.9631 4.48879 30.7852 3.83505 30.5959 3.13044C30.5009 2.77877 30.4059 2.4112 30.2894 2.04935C30.2799 2.022 30.2717 2.00038 30.2622 1.97812C30.2542 1.95618 30.242 1.93607 30.2261 1.91898C30.2153 1.90944 30.2033 1.92471 30.1976 1.93424C30.191 1.94486 30.1851 1.9559 30.1799 1.96731C30.1691 1.98957 30.1603 2.01183 30.152 2.03091C30.1178 2.11294 30.0843 2.19498 30.0501 2.27765C30.0115 2.37558 29.9735 2.47352 29.9348 2.57272C29.8589 2.77113 29.7841 2.97527 29.7101 3.18195C29.5619 3.59594 29.4144 4.02456 29.2668 4.46399C29.1193 4.90342 28.9705 5.3543 28.8236 5.81662C28.7497 6.04726 28.6748 6.28043 28.5988 6.51615C28.5228 6.75187 28.4464 6.99289 28.3696 7.23921C27.9549 8.3947 27.5389 9.59852 27.0741 10.8424C26.6093 12.0863 26.0794 13.3505 25.4861 14.6218C25.3172 14.9609 25.1513 15.2973 24.9884 15.631L24.8617 15.8765L24.7294 16.1207L24.466 16.6072L24.2045 17.0898C24.1608 17.17 24.1171 17.2501 24.0741 17.3302L23.9354 17.5636L23.3851 18.4883L23.249 18.7165C23.2041 18.7929 23.1585 18.8692 23.1097 18.9417L22.8229 19.3824L22.2568 20.2504C22.2099 20.3217 22.165 20.3941 22.1162 20.4641C22.0675 20.5341 22.0181 20.6021 21.9693 20.6708L21.6774 21.0822L21.1038 21.8892L20.9626 22.0876C20.9138 22.1512 20.8638 22.2148 20.815 22.2784L20.5225 22.66C20.3287 22.9118 20.1373 23.1598 19.9482 23.404L19.6677 23.7678C19.6215 23.8282 19.574 23.8873 19.5252 23.9446L19.3809 24.1175C19.1896 24.3478 19.0012 24.5739 18.8154 24.7961C18.0854 25.6959 17.3509 26.4858 16.6949 27.2184L16.4511 27.4886L16.3314 27.6222L16.2086 27.7494L15.7343 28.2409L14.8637 29.1382L14.4686 29.5427C14.342 29.6731 14.2153 29.7901 14.0937 29.9071L13.4314 30.5373C12.6317 31.2909 12.1758 31.6922 12.1454 31.6604C12.115 31.6286 12.512 31.1681 13.256 30.3631L13.8772 29.6953C13.9905 29.5732 14.1127 29.4498 14.2324 29.3138L14.6066 28.8934C14.8671 28.6038 15.1444 28.2948 15.4386 27.9662L15.8939 27.4613L16.0123 27.3341L16.1275 27.1986L16.3625 26.9226C16.9956 26.1748 17.7042 25.3729 18.4102 24.466L18.9585 23.7824L19.0991 23.6082C19.1459 23.5503 19.1928 23.4911 19.2371 23.4301L19.5094 23.0651L20.0672 22.3172C20.1609 22.19 20.2572 22.0628 20.3515 21.9357C20.399 21.8721 20.4478 21.8085 20.4946 21.7449L20.632 21.5471L21.1905 20.742L21.4748 20.3325L21.6185 20.1264C21.6654 20.0571 21.7091 19.9852 21.7553 19.9147L22.3068 19.053C22.3993 18.908 22.493 18.7623 22.5867 18.6161C22.6348 18.5436 22.6791 18.4685 22.7228 18.3929L22.8533 18.1658L23.3908 17.2514C23.4358 17.1744 23.4814 17.0975 23.527 17.0205L23.6536 16.7833C23.7385 16.625 23.8239 16.4653 23.9101 16.307C23.9962 16.1486 24.0817 15.989 24.1684 15.8269L24.2982 15.5858C24.3381 15.5038 24.3786 15.4218 24.4191 15.3391L24.9086 14.3445C25.493 13.0917 26.023 11.8459 26.4871 10.616C26.9513 9.38612 27.3856 8.18166 27.8105 7.03698C27.889 6.79914 27.9667 6.56363 28.0435 6.33046L28.2791 5.63093C28.4352 5.17009 28.5914 4.71942 28.7476 4.27893C28.904 3.8395 29.0598 3.41088 29.2187 2.99498C29.2979 2.7864 29.3776 2.58162 29.46 2.38003C29.5005 2.27892 29.5423 2.17908 29.5866 2.07924L29.6499 1.93106L29.6835 1.8573L29.7341 1.74601C29.8009 1.58805 29.8882 1.43966 29.9937 1.30467C30.0315 1.25845 30.08 1.22221 30.1349 1.1991C30.1596 1.1902 30.1837 1.1832 30.2115 1.17557C30.2272 1.17118 30.2434 1.16883 30.2597 1.16858C30.2754 1.17232 30.2909 1.17721 30.3059 1.18321C30.3331 1.19465 30.3572 1.20546 30.3806 1.21691C30.4036 1.23259 30.4248 1.25071 30.4439 1.27096C30.4673 1.29306 30.4885 1.31734 30.5072 1.34346C30.5275 1.37017 30.5446 1.40705 30.563 1.43694C30.633 1.58856 30.6904 1.74575 30.7346 1.9069C30.8447 2.29482 30.9302 2.6643 31.0151 3.02042C31.1829 3.73203 31.3355 4.38577 31.4906 4.97274C31.7977 6.14667 32.1124 7.0586 32.4328 7.62077C32.5455 7.83802 32.6978 8.03215 32.8817 8.19311C33.0102 8.29549 33.0976 8.3203 33.0919 8.34065Z" fill="white" stroke="white" stroke-width="0.5"/>
<path d="M21.9481 8.34065C21.9481 8.35337 21.8462 8.36163 21.6847 8.27705C21.5232 8.19247 21.3219 8.00678 21.1281 7.72697C20.7362 7.16608 20.3613 6.24906 20.0011 5.07576C19.8193 4.48879 19.6414 3.83505 19.4521 3.13044C19.3571 2.77877 19.2621 2.4112 19.1456 2.04935C19.1361 2.022 19.1279 2.00038 19.1184 1.97812C19.1104 1.95618 19.0982 1.93607 19.0823 1.91898C19.0715 1.90944 19.0595 1.92471 19.0538 1.93424C19.0472 1.94486 19.0413 1.9559 19.0361 1.96731C19.0253 1.98957 19.0165 2.01183 19.0082 2.03091C18.974 2.11294 18.9405 2.19498 18.9063 2.27765C18.8677 2.37558 18.8297 2.47352 18.791 2.57272C18.7151 2.77113 18.6403 2.97527 18.5663 3.18195C18.4181 3.59594 18.2706 4.02456 18.123 4.46399C17.9755 4.90342 17.8267 5.3543 17.6766 5.81662C17.6028 6.04726 17.5278 6.28043 17.4518 6.51615C17.3759 6.75187 17.2995 6.99289 17.2226 7.23921C16.8079 8.3947 16.3919 9.59852 15.9271 10.8424C15.4624 12.0863 14.9324 13.3505 14.3391 14.6218C14.1702 14.9609 14.0044 15.2973 13.8414 15.631L13.7179 15.8765L13.5856 16.1207L13.3222 16.6072L13.0607 17.0898C13.017 17.17 12.9733 17.2501 12.9303 17.3302L12.7916 17.5636L12.2413 18.4883L12.1052 18.7165C12.0603 18.7929 12.0147 18.8692 11.9659 18.9417L11.6791 19.3824L11.113 20.2504C11.0661 20.3217 11.0212 20.3941 10.9724 20.4641C10.9237 20.5341 10.8743 20.6021 10.8255 20.6708L10.5336 21.0822L9.95997 21.8892L9.81877 22.0876C9.77001 22.1512 9.71999 22.2148 9.67123 22.2784L9.3787 22.66C9.18495 22.9118 8.99351 23.1598 8.8044 23.404L8.5239 23.7678C8.47768 23.8282 8.43019 23.8873 8.38143 23.9446L8.23706 24.1175C8.04584 24.3478 7.85736 24.5739 7.67163 24.7961C6.94156 25.6959 6.20706 26.4858 5.55108 27.2184L5.3073 27.4886L5.18763 27.6222L5.06479 27.7494L4.59053 28.2409L3.7199 29.1382L3.32479 29.5427C3.19815 29.6731 3.07152 29.7901 2.94994 29.9071L2.28763 30.5373C1.48791 31.2909 1.03202 31.6922 1.00162 31.6604C0.971232 31.6286 1.36824 31.1681 2.11224 30.3631L2.73403 29.6953C2.84673 29.5732 2.96894 29.4498 3.08861 29.3138L3.46283 28.8934C3.72328 28.6038 4.00061 28.2948 4.29484 27.9662L4.7501 27.4613L4.8685 27.3341L4.98374 27.1986L5.21866 26.9226C5.85185 26.1748 6.56038 25.3729 7.26639 24.466L7.81473 23.7824L7.9553 23.6082C8.00215 23.5503 8.04901 23.4911 8.09333 23.4301L8.3656 23.0651L8.92344 22.3172C9.01715 22.19 9.1134 22.0628 9.20774 21.9357C9.25523 21.8721 9.30399 21.8085 9.35084 21.7449L9.48824 21.5471L10.0467 20.742L10.331 20.3325L10.4748 20.1264C10.5216 20.0571 10.5653 19.9852 10.6115 19.9147L11.163 19.053C11.2555 18.908 11.3492 18.7623 11.4429 18.6161C11.491 18.5436 11.5353 18.4685 11.579 18.3929L11.7095 18.1658L12.247 17.2514C12.292 17.1744 12.3376 17.0975 12.3832 17.0205L12.5098 16.7833C12.5947 16.625 12.6801 16.4653 12.7663 16.307C12.8524 16.1486 12.9379 15.989 13.0246 15.8269L13.1544 15.5858C13.1943 15.5038 13.2348 15.4218 13.2753 15.3391L13.7648 14.3445C14.3492 13.0917 14.8792 11.8459 15.3433 10.616C15.8075 9.38612 16.2418 8.18166 16.6667 7.03698C16.7452 6.79914 16.8229 6.56363 16.8997 6.33046L17.1353 5.63093C17.2919 5.17009 17.4481 4.71942 17.6038 4.27893C17.7602 3.8395 17.916 3.41088 18.0749 2.99498C18.1541 2.7864 18.2338 2.58162 18.3162 2.38003C18.3567 2.27892 18.3985 2.17908 18.4428 2.07924L18.5061 1.93106L18.5397 1.8573L18.5903 1.74601C18.6571 1.58805 18.7444 1.43966 18.8499 1.30467C18.8877 1.25845 18.9362 1.22221 18.9911 1.1991C19.0158 1.1902 19.0399 1.1832 19.0677 1.17557C19.0834 1.17118 19.0996 1.16883 19.1159 1.16858C19.1316 1.17232 19.1471 1.17721 19.1621 1.18321C19.1893 1.19465 19.2134 1.20546 19.2368 1.21691C19.2598 1.23259 19.281 1.25071 19.3001 1.27096C19.3235 1.29306 19.3447 1.31734 19.3634 1.34346C19.3837 1.37017 19.4008 1.40705 19.4192 1.43694C19.4892 1.58856 19.5466 1.74575 19.5908 1.9069C19.7009 2.29482 19.7864 2.6643 19.8713 3.02042C20.0391 3.73203 20.1917 4.38577 20.3468 4.97274C20.6539 6.14667 20.9686 7.0586 21.289 7.62077C21.4017 7.83802 21.554 8.03215 21.7379 8.19311C21.8664 8.29549 21.9538 8.3203 21.9481 8.34065Z" fill="white" stroke="white" stroke-width="0.5"/>
<path d="M27.5354 8.34311C27.5354 8.35392 27.5177 8.36028 27.4886 8.36219C27.4458 8.36444 27.403 8.35928 27.3619 8.34692C27.2095 8.29597 27.0707 8.21071 26.9561 8.09764C26.6502 7.81719 26.3444 7.31544 26.0652 6.67251C25.7859 6.02958 25.5244 5.24038 25.2756 4.36025C25.149 3.92018 25.0293 3.45659 24.9039 2.97964C24.8406 2.74116 24.7773 2.49887 24.7083 2.25849C24.6912 2.19934 24.6734 2.13957 24.6557 2.07979L24.6399 2.02828C24.6401 2.02723 24.6401 2.02615 24.6399 2.0251V2.0251L24.6228 2.0569L24.5797 2.13893C24.4651 2.35897 24.3568 2.58408 24.2524 2.80348C24.0428 3.24864 23.8484 3.67853 23.6654 4.09189C23.2994 4.9186 22.9816 5.66964 22.72 6.30176C22.4585 6.93388 22.2553 7.44644 22.1267 7.80384C22.0634 7.98126 22.0172 8.1218 21.9944 8.2102C21.9841 8.24244 21.9792 8.27618 21.9798 8.31004C21.9798 8.33484 21.9906 8.33802 21.9798 8.34311C21.9694 8.34758 21.9578 8.34893 21.9466 8.34702C21.9354 8.3451 21.9249 8.33999 21.9165 8.3323C21.8858 8.29675 21.8676 8.25207 21.8646 8.20511C21.8493 8.04997 21.8562 7.89345 21.8849 7.74024C21.9444 7.34978 22.0869 6.80478 22.2971 6.14468C22.5073 5.48458 22.7853 4.71001 23.1253 3.86104C23.2956 3.43687 23.4811 2.99363 23.6869 2.5383C23.7908 2.31063 23.8984 2.07979 24.0181 1.84513L24.063 1.75737L24.0915 1.70395L24.1378 1.62001C24.1964 1.50965 24.2624 1.40341 24.3353 1.30204C24.3676 1.25847 24.4043 1.2184 24.4448 1.18249C24.4781 1.15455 24.5155 1.13202 24.5557 1.11571C24.5912 1.10204 24.629 1.09493 24.6671 1.09473H24.7C24.7121 1.09567 24.7241 1.09824 24.7355 1.10236L24.7988 1.12016L24.8539 1.1367C24.8716 1.14687 24.8881 1.15832 24.9052 1.16913L24.9546 1.21301C24.9713 1.23105 24.9872 1.24994 25.0021 1.26961C25.0185 1.2908 25.0331 1.31335 25.0457 1.33702C25.0607 1.36152 25.0745 1.38678 25.0869 1.41269C25.111 1.46929 25.1376 1.52271 25.1578 1.5844C25.1781 1.64608 25.2015 1.70395 25.2211 1.76309L25.2484 1.84767L25.2623 1.896L25.3174 2.08678C25.387 2.34116 25.4478 2.58472 25.5073 2.82574C25.6232 3.30587 25.7353 3.76883 25.8423 4.21017C26.0569 5.08839 26.2678 5.87123 26.485 6.51034C26.7022 7.14946 26.9282 7.64167 27.1416 7.93229C27.2211 8.04427 27.315 8.1452 27.4208 8.23245C27.4943 8.29032 27.5392 8.31958 27.5354 8.34311Z" fill="white" stroke="white" stroke-width="0.5"/>
</svg>
